<svg xmlns="http://www.w3.org/2000/svg" xmlns:xlink="http://www.w3.org/1999/xlink" width="1600" zoomAndPan="magnify" viewBox="0 0 1200 931.499968" height="1242" preserveAspectRatio="xMidYMid meet" version="1.0"><defs><clipPath id="a852933dd0"><path d="M 1 127 L 572 127 L 572 355.308594 L 1 355.308594 Z M 1 127 " clip-rule="nonzero"/></clipPath><clipPath id="4bd16c1d44"><path d="M 628 127 L 1199 127 L 1199 355.308594 L 628 355.308594 Z M 628 127 " clip-rule="nonzero"/></clipPath><clipPath id="eec46f76d0"><path d="M 45.777344 170.160156 L 117.863281 170.160156 L 117.863281 930.710938 L 45.777344 930.710938 Z M 45.777344 170.160156 " clip-rule="nonzero"/></clipPath><clipPath id="13ddc2128e"><path d="M 0.777344 0.160156 L 72.863281 0.160156 L 72.863281 760.710938 L 0.777344 760.710938 Z M 0.777344 0.160156 " clip-rule="nonzero"/></clipPath><clipPath id="dcf53509f1"><rect x="0" width="73" y="0" height="761"/></clipPath><clipPath id="b94408c65b"><path d="M 1083.410156 170.160156 L 1155.496094 170.160156 L 1155.496094 930.710938 L 1083.410156 930.710938 Z M 1083.410156 170.160156 " clip-rule="nonzero"/></clipPath><clipPath id="204137439a"><path d="M 0.410156 0.160156 L 72.496094 0.160156 L 72.496094 760.710938 L 0.410156 760.710938 Z M 0.410156 0.160156 " clip-rule="nonzero"/></clipPath><clipPath id="47e1823cb2"><rect x="0" width="73" y="0" height="761"/></clipPath></defs><g clip-path="url(#a852933dd0)"><path fill="#9d6b36" d="M 1.660156 127.632812 L 117.777344 355.308594 L 51.082031 173.9375 C 51.082031 173.9375 413.589844 204.40625 571.691406 355.308594 C 571.691406 355.308594 513.632812 178.496094 1.660156 127.632812 Z M 1.660156 127.632812 " fill-opacity="1" fill-rule="nonzero"/></g><path fill="#9d6b36" d="M 188.070312 44.144531 L 188.070312 127.632812 C 448.136719 160.980469 591.601562 309.726562 591.601562 309.726562 C 486.761719 124.753906 188.070312 44.144531 188.070312 44.144531 Z M 188.070312 44.144531 " fill-opacity="1" fill-rule="nonzero"/><path fill="#9d6b36" d="M 340.894531 0 L 340.894531 73.894531 C 506.195312 140.589844 591.363281 265.34375 591.363281 265.34375 C 533.066406 92.847656 340.894531 0 340.894531 0 Z M 340.894531 0 " fill-opacity="1" fill-rule="nonzero"/><g clip-path="url(#4bd16c1d44)"><path fill="#9d6b36" d="M 1198.339844 127.632812 C 686.367188 178.496094 628.308594 355.308594 628.308594 355.308594 C 786.410156 204.40625 1148.917969 173.9375 1148.917969 173.9375 L 1082.222656 355.308594 Z M 1198.339844 127.632812 " fill-opacity="1" fill-rule="nonzero"/></g><path fill="#9d6b36" d="M 1012.167969 44.144531 C 1012.167969 44.144531 713.476562 124.515625 608.636719 309.484375 C 608.636719 309.484375 752.105469 160.742188 1012.167969 127.394531 Z M 1012.167969 44.144531 " fill-opacity="1" fill-rule="nonzero"/><path fill="#9d6b36" d="M 859.105469 73.894531 L 859.105469 0 C 859.105469 0 666.933594 92.847656 608.636719 265.34375 C 608.636719 265.34375 693.804688 140.589844 859.105469 73.894531 Z M 859.105469 73.894531 " fill-opacity="1" fill-rule="nonzero"/><g clip-path="url(#eec46f76d0)"><g transform="matrix(1, 0, 0, 1, 45, 170)"><g clip-path="url(#dcf53509f1)"><g clip-path="url(#13ddc2128e)"><path fill="#9d6b36" d="M 0.777344 0.160156 L 72.863281 0.160156 L 72.863281 760.722656 L 0.777344 760.722656 Z M 0.777344 0.160156 " fill-opacity="1" fill-rule="nonzero"/></g></g></g></g><g clip-path="url(#b94408c65b)"><g transform="matrix(1, 0, 0, 1, 1083, 170)"><g clip-path="url(#47e1823cb2)"><g clip-path="url(#204137439a)"><path fill="#9d6b36" d="M 0.410156 0.160156 L 72.496094 0.160156 L 72.496094 760.722656 L 0.410156 760.722656 Z M 0.410156 0.160156 " fill-opacity="1" fill-rule="nonzero"/></g></g></g></g></svg>