<svg xmlns="http://www.w3.org/2000/svg" xmlns:xlink="http://www.w3.org/1999/xlink" width="1112" zoomAndPan="magnify" viewBox="0 0 834 833.999992" height="1112" preserveAspectRatio="xMidYMid meet" version="1.0"><defs><clipPath id="696bfd61af"><path d="M 0 0 L 833.4375 0 L 833.4375 833.4375 L 0 833.4375 Z M 0 0 " clip-rule="nonzero"/></clipPath><clipPath id="83c3e6355b"><path d="M 416.71875 0 C 186.570312 0 0 186.570312 0 416.71875 C 0 646.867188 186.570312 833.4375 416.71875 833.4375 C 646.867188 833.4375 833.4375 646.867188 833.4375 416.71875 C 833.4375 186.570312 646.867188 0 416.71875 0 Z M 416.71875 0 " clip-rule="nonzero"/></clipPath><clipPath id="d12b25261b"><path d="M 0 0 L 833.4375 0 L 833.4375 833.4375 L 0 833.4375 Z M 0 0 " clip-rule="nonzero"/></clipPath><clipPath id="fd2bdfd4cc"><path d="M 416.71875 0 C 186.570312 0 0 186.570312 0 416.71875 C 0 646.867188 186.570312 833.4375 416.71875 833.4375 C 646.867188 833.4375 833.4375 646.867188 833.4375 416.71875 C 833.4375 186.570312 646.867188 0 416.71875 0 Z M 416.71875 0 " clip-rule="nonzero"/></clipPath><clipPath id="a4f6d5e429"><rect x="0" width="834" y="0" height="834"/></clipPath><clipPath id="a757e58147"><path d="M 1 61 L 266 61 L 266 166.65625 L 1 166.65625 Z M 1 61 " clip-rule="nonzero"/></clipPath><clipPath id="4185e18b41"><path d="M 158 1.78125 L 275 1.78125 L 275 125 L 158 125 Z M 158 1.78125 " clip-rule="nonzero"/></clipPath><clipPath id="a199262352"><path d="M 291 61 L 556.800781 61 L 556.800781 166.65625 L 291 166.65625 Z M 291 61 " clip-rule="nonzero"/></clipPath><clipPath id="ffd4f2a241"><path d="M 282 1.78125 L 399 1.78125 L 399 125 L 282 125 Z M 282 1.78125 " clip-rule="nonzero"/></clipPath><clipPath id="f57ae0cb9d"><path d="M 21.542969 80.738281 L 54.996094 80.738281 L 54.996094 433.65625 L 21.542969 433.65625 Z M 21.542969 80.738281 " clip-rule="nonzero"/></clipPath><clipPath id="9f3cd34686"><path d="M 0.542969 0.738281 L 33.996094 0.738281 L 33.996094 353.65625 L 0.542969 353.65625 Z M 0.542969 0.738281 " clip-rule="nonzero"/></clipPath><clipPath id="29b00b021e"><rect x="0" width="34" y="0" height="354"/></clipPath><clipPath id="3556bc37b8"><path d="M 503.035156 80.738281 L 536.484375 80.738281 L 536.484375 433.65625 L 503.035156 433.65625 Z M 503.035156 80.738281 " clip-rule="nonzero"/></clipPath><clipPath id="99035aa295"><path d="M 0.0351562 0.738281 L 33.484375 0.738281 L 33.484375 353.65625 L 0.0351562 353.65625 Z M 0.0351562 0.738281 " clip-rule="nonzero"/></clipPath><clipPath id="d45829cbfa"><rect x="0" width="34" y="0" height="354"/></clipPath><clipPath id="4e2c8cb0d5"><rect x="0" width="557" y="0" height="434"/></clipPath></defs><rect x="-83.4" width="1000.8" fill="#ffffff" y="-83.399999" height="1000.799991" fill-opacity="1"/><g clip-path="url(#696bfd61af)"><g clip-path="url(#83c3e6355b)"><g transform="matrix(1, 0, 0, 1, -0, 0.000000000000027933)"><g clip-path="url(#a4f6d5e429)"><g clip-path="url(#d12b25261b)"><g clip-path="url(#fd2bdfd4cc)"><path fill="#9d6b36" d="M 0 0 L 833.4375 0 L 833.4375 833.4375 L 0 833.4375 Z M 0 0 " fill-opacity="1" fill-rule="nonzero"/></g></g></g></g></g></g><g transform="matrix(1, 0, 0, 1, 138, 199)"><g clip-path="url(#4e2c8cb0d5)"><g clip-path="url(#a757e58147)"><path fill="#ffffff" d="M 1.074219 61.007812 L 54.953125 166.65625 L 24.007812 82.492188 C 24.007812 82.492188 192.21875 96.632812 265.582031 166.65625 C 265.582031 166.65625 238.640625 84.609375 1.074219 61.007812 Z M 1.074219 61.007812 " fill-opacity="1" fill-rule="nonzero"/></g><path fill="#ffffff" d="M 87.574219 22.265625 L 87.574219 61.007812 C 208.25 76.480469 274.824219 145.503906 274.824219 145.503906 C 226.171875 59.671875 87.574219 22.265625 87.574219 22.265625 Z M 87.574219 22.265625 " fill-opacity="1" fill-rule="nonzero"/><g clip-path="url(#4185e18b41)"><path fill="#ffffff" d="M 158.488281 1.78125 L 158.488281 36.070312 C 235.191406 67.019531 274.710938 124.90625 274.710938 124.90625 C 247.660156 44.863281 158.488281 1.78125 158.488281 1.78125 Z M 158.488281 1.78125 " fill-opacity="1" fill-rule="nonzero"/></g><g clip-path="url(#a199262352)"><path fill="#ffffff" d="M 556.367188 61.007812 C 318.796875 84.609375 291.855469 166.65625 291.855469 166.65625 C 365.21875 96.632812 533.433594 82.492188 533.433594 82.492188 L 502.484375 166.65625 Z M 556.367188 61.007812 " fill-opacity="1" fill-rule="nonzero"/></g><path fill="#ffffff" d="M 469.976562 22.265625 C 469.976562 22.265625 331.375 59.558594 282.726562 145.390625 C 282.726562 145.390625 349.300781 76.371094 469.976562 60.894531 Z M 469.976562 22.265625 " fill-opacity="1" fill-rule="nonzero"/><g clip-path="url(#ffd4f2a241)"><path fill="#ffffff" d="M 398.953125 36.070312 L 398.953125 1.78125 C 398.953125 1.78125 309.78125 44.863281 282.726562 124.90625 C 282.726562 124.90625 322.246094 67.019531 398.953125 36.070312 Z M 398.953125 36.070312 " fill-opacity="1" fill-rule="nonzero"/></g><g clip-path="url(#f57ae0cb9d)"><g transform="matrix(1, 0, 0, 1, 21, 80)"><g clip-path="url(#29b00b021e)"><g clip-path="url(#9f3cd34686)"><path fill="#ffffff" d="M 0.542969 0.738281 L 33.996094 0.738281 L 33.996094 353.664062 L 0.542969 353.664062 Z M 0.542969 0.738281 " fill-opacity="1" fill-rule="nonzero"/></g></g></g></g><g clip-path="url(#3556bc37b8)"><g transform="matrix(1, 0, 0, 1, 503, 80)"><g clip-path="url(#d45829cbfa)"><g clip-path="url(#99035aa295)"><path fill="#ffffff" d="M 0.0351562 0.738281 L 33.484375 0.738281 L 33.484375 353.664062 L 0.0351562 353.664062 Z M 0.0351562 0.738281 " fill-opacity="1" fill-rule="nonzero"/></g></g></g></g></g></g></svg>