<svg xmlns="http://www.w3.org/2000/svg" xmlns:xlink="http://www.w3.org/1999/xlink" width="1758" zoomAndPan="magnify" viewBox="0 0 1318.5 313.499995" height="418" preserveAspectRatio="xMidYMid meet" version="1.0"><defs><g/><clipPath id="4d0f94c4a2"><path d="M 0.800781 0 L 1317.199219 0 L 1317.199219 313 L 0.800781 313 Z M 0.800781 0 " clip-rule="nonzero"/></clipPath><clipPath id="7d0af78dd6"><path d="M 0.0390625 42 L 192 42 L 192 119.285156 L 0.0390625 119.285156 Z M 0.0390625 42 " clip-rule="nonzero"/></clipPath><clipPath id="eb20e41eb4"><path d="M 210 42 L 402.359375 42 L 402.359375 119.285156 L 210 119.285156 Z M 210 42 " clip-rule="nonzero"/></clipPath><clipPath id="56918ea1d4"><path d="M 15.0625 57.125 L 39.261719 57.125 L 39.261719 312.464844 L 15.0625 312.464844 Z M 15.0625 57.125 " clip-rule="nonzero"/></clipPath><clipPath id="ad431e8e26"><path d="M 0.0625 0.125 L 24.261719 0.125 L 24.261719 255.464844 L 0.0625 255.464844 Z M 0.0625 0.125 " clip-rule="nonzero"/></clipPath><clipPath id="5858f50f0e"><rect x="0" width="25" y="0" height="256"/></clipPath><clipPath id="6a9158e449"><path d="M 363.421875 57.125 L 387.621094 57.125 L 387.621094 312.464844 L 363.421875 312.464844 Z M 363.421875 57.125 " clip-rule="nonzero"/></clipPath><clipPath id="41aee2a808"><path d="M 0.421875 0.125 L 24.621094 0.125 L 24.621094 255.464844 L 0.421875 255.464844 Z M 0.421875 0.125 " clip-rule="nonzero"/></clipPath><clipPath id="a9e9fd1ac2"><rect x="0" width="25" y="0" height="256"/></clipPath><clipPath id="3d2d3564d5"><rect x="0" width="403" y="0" height="313"/></clipPath><clipPath id="55facf48e1"><rect x="0" width="731" y="0" height="161"/></clipPath></defs><g clip-path="url(#4d0f94c4a2)"><path fill="#ffffff" d="M 0.800781 0 L 1317.199219 0 L 1317.199219 313 L 0.800781 313 Z M 0.800781 0 " fill-opacity="1" fill-rule="nonzero"/></g><g transform="matrix(1, 0, 0, 1, 1, 0)"><g clip-path="url(#3d2d3564d5)"><g clip-path="url(#7d0af78dd6)"><path fill="#9d6b36" d="M 0.25 42.851562 L 39.234375 119.285156 L 16.839844 58.394531 C 16.839844 58.394531 138.542969 68.625 191.625 119.285156 C 191.625 119.285156 172.132812 59.925781 0.25 42.851562 Z M 0.25 42.851562 " fill-opacity="1" fill-rule="nonzero"/></g><path fill="#9d6b36" d="M 62.832031 14.820312 L 62.832031 42.851562 C 150.144531 54.046875 198.308594 103.984375 198.308594 103.984375 C 163.109375 41.882812 62.832031 14.820312 62.832031 14.820312 Z M 62.832031 14.820312 " fill-opacity="1" fill-rule="nonzero"/><path fill="#9d6b36" d="M 114.140625 0 L 114.140625 24.808594 C 169.636719 47.199219 198.226562 89.082031 198.226562 89.082031 C 178.65625 31.171875 114.140625 0 114.140625 0 Z M 114.140625 0 " fill-opacity="1" fill-rule="nonzero"/><g clip-path="url(#eb20e41eb4)"><path fill="#9d6b36" d="M 402.007812 42.851562 C 230.125 59.925781 210.632812 119.285156 210.632812 119.285156 C 263.710938 68.625 385.414062 58.394531 385.414062 58.394531 L 363.023438 119.285156 Z M 402.007812 42.851562 " fill-opacity="1" fill-rule="nonzero"/></g><path fill="#9d6b36" d="M 339.503906 14.820312 C 339.503906 14.820312 239.226562 41.800781 204.027344 103.902344 C 204.027344 103.902344 252.191406 53.964844 339.503906 42.769531 Z M 339.503906 14.820312 " fill-opacity="1" fill-rule="nonzero"/><path fill="#9d6b36" d="M 288.117188 24.808594 L 288.117188 0 C 288.117188 0 223.601562 31.171875 204.027344 89.082031 C 204.027344 89.082031 232.621094 47.199219 288.117188 24.808594 Z M 288.117188 24.808594 " fill-opacity="1" fill-rule="nonzero"/><g clip-path="url(#56918ea1d4)"><g transform="matrix(1, 0, 0, 1, 15, 57)"><g clip-path="url(#5858f50f0e)"><g clip-path="url(#ad431e8e26)"><path fill="#9d6b36" d="M 0.0625 0.125 L 24.261719 0.125 L 24.261719 255.46875 L 0.0625 255.46875 Z M 0.0625 0.125 " fill-opacity="1" fill-rule="nonzero"/></g></g></g></g><g clip-path="url(#6a9158e449)"><g transform="matrix(1, 0, 0, 1, 363, 57)"><g clip-path="url(#a9e9fd1ac2)"><g clip-path="url(#41aee2a808)"><path fill="#9d6b36" d="M 0.421875 0.125 L 24.621094 0.125 L 24.621094 255.46875 L 0.421875 255.46875 Z M 0.421875 0.125 " fill-opacity="1" fill-rule="nonzero"/></g></g></g></g></g></g><g transform="matrix(1, 0, 0, 1, 482, 76)"><g clip-path="url(#55facf48e1)"><g fill="#2c2c2c" fill-opacity="1"><g transform="translate(0.274345, 126.383442)"><g><path d="M 13.84375 0.40625 L 11.1875 -1.328125 L 9.71875 -4.125 L 9.859375 -33.546875 L 9.59375 -36.078125 L 9.984375 -49.53125 L 9.71875 -52.1875 L 9.859375 -73.5 L 9.59375 -75.890625 L 9.984375 -81.078125 L 9.59375 -89.203125 L 11.046875 -92 L 13.984375 -93.328125 L 17.703125 -92.265625 L 20.765625 -90 L 24.234375 -86.40625 L 26.359375 -84.546875 L 29.828125 -80.421875 L 31.6875 -78.8125 L 43.796875 -65.375 L 46.734375 -62.703125 L 49.125 -59.640625 L 51 -57.78125 L 52.59375 -55.515625 L 55.390625 -54.453125 L 57.78125 -56.046875 L 65.90625 -64.3125 L 67.640625 -66.5625 L 79.359375 -78.546875 L 81.21875 -80.953125 L 82.8125 -82.40625 L 84.546875 -84.546875 L 90.140625 -90.40625 L 92.9375 -92.140625 L 96.796875 -93.328125 L 99.59375 -91.859375 L 101.1875 -89.078125 L 100.921875 -86.546875 L 101.046875 -81.078125 L 100.921875 -78.8125 L 101.1875 -73.09375 L 101.046875 -70.5625 L 101.1875 -57.390625 L 100.921875 -54.453125 L 101.1875 -14.515625 L 100.921875 -11.84375 L 101.3125 -4.921875 L 99.71875 -1.0625 L 96.921875 0.40625 L 80.8125 -0.140625 L 78.015625 -0.9375 L 76.953125 -4 L 76.953125 -5.984375 L 76.6875 -11.984375 L 76.953125 -14.375 L 76.6875 -19.3125 L 76.953125 -24.5 L 76.5625 -29.828125 L 76.828125 -37.140625 L 75.75 -39.140625 L 74.03125 -38.34375 L 68.5625 -32.75 L 66.703125 -31.421875 L 62.96875 -27.03125 L 61.375 -25.4375 L 59.515625 -23.4375 L 56.84375 -21.4375 L 53.921875 -21.5625 L 51.125 -23.5625 L 47.53125 -27.03125 L 45.796875 -29.15625 L 40.34375 -34.609375 L 38.75 -36.609375 L 36.609375 -38.34375 L 35.28125 -38.875 L 34.078125 -37.671875 L 34.078125 -32.484375 L 34.34375 -29.5625 L 34.078125 -24.765625 L 34.21875 -21.96875 L 33.8125 -17.84375 L 34.21875 -3.859375 L 32.625 -1.46875 L 28.890625 0.140625 L 24.625 -0.140625 L 21.703125 0.265625 L 16.515625 0 Z M 13.84375 0.40625 "/></g></g></g><g fill="#2c2c2c" fill-opacity="1"><g transform="translate(111.582242, 126.383442)"><g><path d="M 49.796875 1.59375 L 47 1.328125 L 42.203125 0.265625 L 39.28125 0 L 35.421875 -1.328125 L 25.03125 -6.65625 L 20.640625 -10.125 L 19.171875 -11.84375 L 17.171875 -13.71875 L 15.4375 -15.84375 L 13.84375 -17.4375 L 7.71875 -29.5625 L 6.53125 -34.609375 L 6.25 -37.140625 L 5.59375 -39.546875 L 5.1875 -42.34375 L 5.59375 -53.125 L 7.859375 -63.375 L 9.859375 -68.4375 L 13.984375 -75.484375 L 20.5 -83.078125 L 25.03125 -86.40625 L 27.421875 -87.609375 L 29.421875 -89.078125 L 39.40625 -92.796875 L 53.515625 -94.796875 L 57.125 -94.65625 L 64.84375 -93.328125 L 75.09375 -90.140625 L 77.09375 -88.671875 L 81.078125 -86.9375 L 84.140625 -84.8125 L 88 -81.484375 L 91.734375 -77.359375 L 94.65625 -73.359375 L 97.1875 -68.4375 L 100.515625 -58.453125 L 101.453125 -52.984375 L 101.859375 -46.328125 L 101.3125 -42.46875 L 101.1875 -39.671875 L 100.515625 -37.015625 L 100.390625 -34.609375 L 99.328125 -29.5625 L 97.328125 -24.5 L 91.46875 -15.578125 L 89.609375 -13.71875 L 87.875 -11.3125 L 84.140625 -8.125 L 81.609375 -6.921875 L 79.625 -5.328125 L 75.21875 -2.921875 L 65.234375 0.40625 L 57.25 1.46875 Z M 57.25 -21.96875 L 59.90625 -22.5 L 61.90625 -23.4375 L 64.3125 -24.09375 L 70.703125 -28.484375 L 72.5625 -30.625 L 73.359375 -32.625 L 74.828125 -35.015625 L 75.75 -37.40625 L 76.828125 -42.34375 L 77.09375 -50.453125 L 76.6875 -52.859375 L 75.484375 -55.390625 L 73.890625 -60.453125 L 68.703125 -65.90625 L 64.578125 -68.828125 L 62.171875 -69.90625 L 59.78125 -70.4375 L 53.390625 -71.234375 L 49.65625 -70.96875 L 44.46875 -69.625 L 42.734375 -68.96875 L 36.078125 -64.4375 L 32.890625 -60.171875 L 32.09375 -57.78125 L 31.015625 -55.390625 L 30.625 -52.859375 L 29.953125 -50.453125 L 29.953125 -42.34375 L 31.015625 -37.40625 L 32.21875 -35.015625 L 32.890625 -32.890625 L 34.75 -30.359375 L 36.484375 -28.484375 L 40.078125 -25.5625 L 42.203125 -24.359375 L 47 -22.375 L 49.921875 -21.96875 Z M 57.25 -21.96875 "/></g></g></g><g fill="#2c2c2c" fill-opacity="1"><g transform="translate(218.363255, 126.383442)"><g><path d="M 9.859375 -3.859375 L 10.125 -6.390625 L 9.59375 -25.296875 L 10.125 -27.828125 L 9.71875 -86.546875 L 9.984375 -89.34375 L 11.453125 -92 L 14.109375 -93.46875 L 17.96875 -92.40625 L 21.828125 -89.609375 L 24.765625 -86.546875 L 26.234375 -84.671875 L 28.09375 -82.953125 L 29.5625 -80.953125 L 31.28125 -79.078125 L 33.546875 -77.09375 L 36.75 -73.09375 L 45.9375 -63.640625 L 47.53125 -61.515625 L 49.65625 -59.78125 L 51.265625 -57.515625 L 52.984375 -55.78125 L 55.390625 -54.984375 L 58.3125 -55.921875 L 78.015625 -76.828125 L 79.21875 -78.8125 L 86.8125 -86.671875 L 89.875 -90.40625 L 93.203125 -92.265625 L 97.1875 -93.46875 L 99.859375 -91.859375 L 101.3125 -89.34375 L 101.1875 -86.546875 L 101.453125 -84.28125 L 101.1875 -81.484375 L 101.59375 -43.796875 L 101.1875 -41.40625 L 101.453125 -38.75 L 101.1875 -35.953125 L 101.3125 -33.28125 L 100.921875 -30.625 L 101.1875 -25.4375 L 100.921875 -22.90625 L 101.453125 -6.921875 L 101.046875 -4.265625 L 99.59375 -1.46875 L 97.0625 0.140625 L 81.078125 0 L 78.15625 -1.0625 L 76.828125 -3.859375 L 77.21875 -22.234375 L 76.828125 -27.15625 L 76.953125 -29.828125 L 76.828125 -32.21875 L 77.21875 -34.75 L 76.828125 -37.40625 L 75.75 -39.015625 L 74.15625 -38.75 L 72.296875 -36.875 L 70.5625 -34.609375 L 59.375 -23.296875 L 57.125 -21.703125 L 54.0625 -21.703125 L 49.65625 -25.296875 L 47.9375 -27.5625 L 40.46875 -34.609375 L 37.140625 -38.75 L 35.15625 -39.28125 L 33.953125 -37.40625 L 34.484375 -29.6875 L 34.078125 -11.71875 L 34.484375 -8.921875 L 34.609375 -6.125 L 34.34375 -3.59375 L 32.890625 -1.46875 L 28.890625 -0.265625 L 14.25 0 L 11.046875 -1.46875 Z M 9.859375 -3.859375 "/></g></g></g><g fill="#2c2c2c" fill-opacity="1"><g transform="translate(329.671171, 126.383442)"><g><path d="M 9.59375 -3.859375 L 10.125 -6.53125 L 10.25 -9.1875 L 9.984375 -14.375 L 9.984375 -17.046875 L 9.71875 -20.109375 L 10.125 -22.5 L 9.984375 -25.03125 L 10.25 -27.953125 L 9.859375 -30.75 L 10.125 -36.078125 L 9.71875 -41.28125 L 10.125 -44.0625 L 10.125 -67.90625 L 9.859375 -70.296875 L 10.125 -73.09375 L 9.59375 -79.890625 L 10.125 -83.75 L 9.859375 -89.078125 L 11.1875 -92 L 15.046875 -92.9375 L 32.484375 -93.328125 L 34.890625 -93.0625 L 40.078125 -93.203125 L 42.734375 -92.9375 L 48.59375 -93.203125 L 51.265625 -92.796875 L 53.65625 -93.0625 L 64.3125 -92.9375 L 67.109375 -91.734375 L 68.4375 -89.078125 L 68.03125 -86.546875 L 67.90625 -83.609375 L 68.296875 -81.078125 L 68.5625 -75.625 L 67.109375 -73.234375 L 64.3125 -71.765625 L 38.75 -71.625 L 34.609375 -70.4375 L 33.28125 -66.5625 L 33.546875 -62.4375 L 35.15625 -60.046875 L 37.40625 -58.578125 L 47.9375 -58.71875 L 51 -58.453125 L 53.78125 -58.453125 L 56.453125 -58.71875 L 61.78125 -58.578125 L 64.046875 -57.125 L 65.234375 -54.59375 L 65.5 -51.921875 L 65.234375 -41.40625 L 63.90625 -38.875 L 61.25 -37.40625 L 58.84375 -37.28125 L 56.046875 -37.546875 L 52.453125 -37.28125 L 45.40625 -37.671875 L 42.734375 -37.40625 L 37.546875 -37.40625 L 35.15625 -35.953125 L 33.953125 -33.15625 L 33.8125 -26.625 L 35.015625 -22.5 L 37.8125 -20.90625 L 40.734375 -21.171875 L 43.671875 -20.90625 L 46.203125 -21.296875 L 63.78125 -21.03125 L 67.765625 -19.703125 L 69.5 -17.046875 L 69.234375 -14.515625 L 69.359375 -6.25 L 69.09375 -3.734375 L 67.90625 -1.203125 L 65.109375 0.140625 L 62.578125 0.40625 L 54.453125 -0.140625 L 46.328125 0.265625 L 43.9375 -0.140625 L 13.84375 0.140625 L 11.3125 -1.328125 Z M 9.59375 -3.859375 "/></g></g></g><g fill="#2c2c2c" fill-opacity="1"><g transform="translate(405.962335, 126.383442)"><g><path d="M 78.546875 -2.125 L 76.828125 -3.859375 L 75.21875 -5.859375 L 73.09375 -7.59375 L 71.359375 -9.71875 L 58.453125 -22.640625 L 56.3125 -24.359375 L 37.28125 -43 L 35.546875 -43.40625 L 34.21875 -41.8125 L 34.75 -39.015625 L 34.34375 -6.390625 L 34.75 -3.734375 L 33.546875 -1.0625 L 30.890625 0.265625 L 27.828125 0 L 25.03125 0.40625 L 18.375 0 L 13.84375 0.265625 L 11.3125 -1.203125 L 10.125 -4.125 L 10.125 -6.65625 L 9.71875 -9.3125 L 10.125 -14.375 L 9.859375 -17.046875 L 9.984375 -22.5 L 9.59375 -25.296875 L 9.59375 -27.828125 L 9.859375 -30.75 L 9.859375 -33.28125 L 10.125 -35.6875 L 9.59375 -54.71875 L 9.984375 -57.515625 L 9.859375 -60.3125 L 10.125 -62.703125 L 9.71875 -68.171875 L 9.984375 -70.828125 L 9.71875 -89.46875 L 11.453125 -92 L 14.640625 -93.59375 L 18.234375 -92.53125 L 23.5625 -88.9375 L 30.75 -81.609375 L 32.484375 -79.359375 L 34.75 -77.75 L 36.078125 -75.75 L 38.609375 -74.03125 L 40.078125 -72.03125 L 44.203125 -68.5625 L 47 -65.640625 L 48.46875 -63.78125 L 50.59375 -62.171875 L 55.25 -57.390625 L 57.25 -55.78125 L 63.109375 -49.796875 L 64.96875 -49.265625 L 65.640625 -51.390625 L 65.5 -56.71875 L 66.03125 -59.515625 L 66.03125 -62.046875 L 65.5 -64.84375 L 65.640625 -89.078125 L 66.96875 -91.859375 L 70.171875 -93.203125 L 72.828125 -93.0625 L 75.21875 -93.328125 L 78.015625 -92.9375 L 80.953125 -93.203125 L 83.484375 -93.203125 L 86.140625 -92.9375 L 89.078125 -91.59375 L 90.671875 -89.203125 L 90.40625 -82.28125 L 90.671875 -78.28125 L 90.140625 -75.625 L 90.140625 -70.296875 L 90.40625 -67.765625 L 90 -62.4375 L 90.53125 -46.46875 L 90.265625 -43.53125 L 90.796875 -39.8125 L 90.140625 -3.59375 L 88.9375 -0.796875 L 85.875 0.671875 L 82.40625 -0.40625 Z M 78.546875 -2.125 "/></g></g></g><g fill="#2c2c2c" fill-opacity="1"><g transform="translate(506.352475, 126.383442)"><g><path d="M 25.5625 -4.125 L 25.4375 -14.515625 L 25.703125 -17.171875 L 25.296875 -25.296875 L 25.4375 -28.09375 L 25.296875 -30.75 L 25.828125 -34.75 L 25.4375 -38.609375 L 25.4375 -43.9375 L 25.703125 -46.59375 L 25.4375 -49.125 L 25.828125 -53.25 L 25.4375 -67.90625 L 24.09375 -70.4375 L 21.703125 -71.890625 L 9.859375 -72.03125 L 6.390625 -71.625 L 3.734375 -72.96875 L 2.265625 -75.890625 L 2.390625 -89.203125 L 3.734375 -91.859375 L 6.65625 -93.203125 L 46.328125 -92.9375 L 49.390625 -93.328125 L 52.0625 -93.328125 L 54.71875 -93.0625 L 57.390625 -93.0625 L 60.3125 -93.46875 L 62.84375 -93.46875 L 64.96875 -93.203125 L 68.171875 -93.46875 L 70.828125 -92.140625 L 72.15625 -89.46875 L 71.890625 -78.546875 L 72.15625 -75.75 L 70.828125 -73.09375 L 67.765625 -71.890625 L 60.453125 -72.03125 L 58.046875 -71.765625 L 55.390625 -71.890625 L 53.125 -71.765625 L 50.1875 -70.5625 L 49.125 -68.171875 L 49.390625 -65.234375 L 49 -62.578125 L 49.53125 -36.078125 L 49.125 -30.484375 L 49.390625 -28.09375 L 49.125 -19.96875 L 48.734375 -17.171875 L 49.125 -14.90625 L 49.265625 -9.59375 L 49 -6.53125 L 49.125 -4 L 48.0625 -1.328125 L 45.40625 -0.265625 L 37.140625 -0.265625 L 34.609375 0 L 31.953125 -0.265625 L 29.421875 0 L 26.625 -1.328125 Z M 25.5625 -4.125 "/></g></g></g><g fill="#2c2c2c" fill-opacity="1"><g transform="translate(580.779638, 126.383442)"><g><path d="M 6.390625 -3.859375 L 6.390625 -14.109375 L 6.65625 -16.640625 L 8.25 -19.171875 L 17.046875 -21.96875 L 18.375 -24.890625 L 18.640625 -30.09375 L 18.109375 -35.8125 L 18.765625 -38.484375 L 18.234375 -43.671875 L 18.5 -46.328125 L 18.640625 -51.796875 L 18.234375 -54.859375 L 18.109375 -57.125 L 18.5 -68.4375 L 16.78125 -70.828125 L 8.65625 -73.625 L 7.328125 -76.15625 L 7.328125 -78.6875 L 7.0625 -81.34375 L 7.0625 -84.28125 L 7.328125 -86.546875 L 7.328125 -89.078125 L 8.78125 -91.859375 L 11.71875 -93.203125 L 16.90625 -92.9375 L 19.4375 -93.0625 L 27.5625 -92.9375 L 30.484375 -93.203125 L 47.390625 -93.0625 L 51.65625 -91.859375 L 52.71875 -89.203125 L 52.984375 -86.546875 L 52.71875 -84.140625 L 52.71875 -76.296875 L 51.265625 -73.765625 L 48.734375 -72.296875 L 45.796875 -72.15625 L 43.265625 -70.703125 L 41.8125 -68.296875 L 41.8125 -62.703125 L 42.078125 -59.90625 L 41.8125 -57.25 L 42.078125 -54.71875 L 41.8125 -50.59375 L 42.078125 -46.59375 L 41.546875 -41 L 42.078125 -35.6875 L 41.8125 -24.765625 L 43.265625 -22.09375 L 52.1875 -19.3125 L 54.0625 -17.046875 L 53.65625 -8.921875 L 53.921875 -6.53125 L 53.921875 -3.59375 L 52.453125 -1.203125 L 49.921875 0.140625 L 10.390625 -0.140625 L 7.71875 -1.0625 Z M 6.390625 -3.859375 "/></g></g></g><g fill="#2c2c2c" fill-opacity="1"><g transform="translate(641.226754, 126.383442)"><g><path d="M 1.734375 -3.734375 L 3.859375 -7.859375 L 11.84375 -19.578125 L 12.921875 -21.828125 L 15.046875 -24.359375 L 16.109375 -26.234375 L 19.578125 -30.890625 L 20.375 -32.890625 L 24.890625 -39.40625 L 25.96875 -41.671875 L 27.828125 -44.0625 L 29.15625 -45.9375 L 29.828125 -49.125 L 28.890625 -52.328125 L 27.296875 -54.59375 L 26.234375 -57.25 L 24.890625 -59.515625 L 23.171875 -61.375 L 20.234375 -66.171875 L 18.640625 -68.296875 L 13.046875 -77.359375 L 11.1875 -79.21875 L 9.859375 -81.484375 L 8.25 -83.75 L 4.921875 -88.9375 L 5.328125 -92.265625 L 8.65625 -93.203125 L 25.15625 -93.0625 L 28.625 -92 L 30.890625 -89.734375 L 32.484375 -87.46875 L 33.546875 -85.203125 L 35.28125 -83.21875 L 41.671875 -72.15625 L 43.53125 -69.625 L 45.265625 -69.765625 L 46.46875 -71.890625 L 48.0625 -74.15625 L 52.0625 -81.21875 L 53.78125 -83.34375 L 57.78125 -89.609375 L 60.3125 -92 L 65.109375 -93.0625 L 67.640625 -93.203125 L 72.03125 -92.9375 L 74.828125 -93.203125 L 79.890625 -92.796875 L 82.546875 -91.859375 L 83.484375 -89.203125 L 65.765625 -61.515625 L 63.78125 -59.375 L 62.171875 -57.125 L 61.109375 -54.859375 L 59.640625 -52.59375 L 58.578125 -49.390625 L 58.984375 -46.203125 L 60.84375 -43.9375 L 63.515625 -39.40625 L 65.234375 -37.546875 L 67.90625 -32.890625 L 69.234375 -30.890625 L 70.5625 -28.359375 L 72.421875 -26.359375 L 74.03125 -24.09375 L 75.09375 -21.703125 L 76.828125 -19.84375 L 78.015625 -17.703125 L 79.75 -15.578125 L 85.34375 -6.921875 L 86.546875 -3.59375 L 86.015625 -0.796875 L 83.875 0 L 73.09375 0.265625 L 70.828125 0 L 65.640625 0.140625 L 62.703125 -0.796875 L 60.046875 -3.0625 L 50.453125 -19.046875 L 49.65625 -21.171875 L 47.796875 -23.4375 L 46.859375 -25.96875 L 45.40625 -28.359375 L 43.671875 -28.09375 L 37.8125 -19.046875 L 31.828125 -7.71875 L 28.890625 -3.203125 L 26.09375 -1.0625 L 22.765625 0 L 12.78125 0 L 10.125 0.265625 L 7.859375 0.140625 L 5.1875 0.265625 L 2.53125 -0.796875 Z M 1.734375 -3.734375 "/></g></g></g></g></g></svg>