<svg xmlns="http://www.w3.org/2000/svg" xmlns:xlink="http://www.w3.org/1999/xlink" width="2000" zoomAndPan="magnify" viewBox="0 0 1500 1499.999933" height="2000" preserveAspectRatio="xMidYMid meet" version="1.0"><defs><g/><clipPath id="280398c5ea"><rect x="0" width="1224" y="0" height="268"/></clipPath></defs><g transform="matrix(1, 0, 0, 1, 138, 616)"><g clip-path="url(#280398c5ea)"><g fill="#2c2c2c" fill-opacity="1"><g transform="translate(1.60981, 212.010868)"><g><path d="M 23.1875 0.671875 L 18.71875 -2.234375 L 16.265625 -6.90625 L 16.5 -56.171875 L 16.046875 -60.40625 L 16.71875 -82.921875 L 16.265625 -87.375 L 16.5 -123.03125 L 16.046875 -127.046875 L 16.71875 -135.734375 L 16.046875 -149.34375 L 18.5 -154.015625 L 23.40625 -156.25 L 29.640625 -154.46875 L 34.765625 -150.671875 L 40.5625 -144.65625 L 44.125 -141.53125 L 49.921875 -134.625 L 53.046875 -131.953125 L 73.328125 -109.4375 L 78.234375 -104.984375 L 82.25 -99.859375 L 85.359375 -96.734375 L 88.046875 -92.953125 L 92.71875 -91.15625 L 96.734375 -93.84375 L 110.328125 -107.65625 L 113.234375 -111.4375 L 132.84375 -131.5 L 135.96875 -135.515625 L 138.640625 -137.96875 L 141.53125 -141.53125 L 150.890625 -151.34375 L 155.578125 -154.234375 L 162.046875 -156.25 L 166.71875 -153.796875 L 169.390625 -149.109375 L 168.953125 -144.875 L 169.171875 -135.734375 L 168.953125 -131.953125 L 169.390625 -122.359375 L 169.171875 -118.125 L 169.390625 -96.0625 L 168.953125 -91.15625 L 169.390625 -24.296875 L 168.953125 -19.84375 L 169.625 -8.25 L 166.9375 -1.78125 L 162.265625 0.671875 L 135.296875 -0.21875 L 130.609375 -1.5625 L 128.828125 -6.6875 L 128.828125 -10.03125 L 128.390625 -20.0625 L 128.828125 -24.078125 L 128.390625 -32.3125 L 128.828125 -41.015625 L 128.15625 -49.921875 L 128.609375 -62.1875 L 126.828125 -65.53125 L 123.921875 -64.1875 L 114.78125 -54.828125 L 111.671875 -52.609375 L 105.421875 -45.25 L 102.75 -42.578125 L 99.625 -39.234375 L 95.171875 -35.890625 L 90.265625 -36.109375 L 85.59375 -39.453125 L 79.578125 -45.25 L 76.671875 -48.8125 L 67.53125 -57.953125 L 64.859375 -61.296875 L 61.296875 -64.1875 L 59.0625 -65.078125 L 57.0625 -63.078125 L 57.0625 -54.390625 L 57.5 -49.484375 L 57.0625 -41.453125 L 57.28125 -36.78125 L 56.609375 -29.875 L 57.28125 -6.46875 L 54.609375 -2.453125 L 48.375 0.21875 L 41.234375 -0.21875 L 36.328125 0.453125 L 27.640625 0 Z M 23.1875 0.671875 "/></g></g></g><g fill="#2c2c2c" fill-opacity="1"><g transform="translate(187.944587, 212.010868)"><g><path d="M 83.359375 2.671875 L 78.6875 2.234375 L 70.65625 0.453125 L 65.75 0 L 59.28125 -2.234375 L 41.90625 -11.140625 L 34.546875 -16.9375 L 32.09375 -19.84375 L 28.75 -22.953125 L 25.859375 -26.53125 L 23.1875 -29.203125 L 12.921875 -49.484375 L 10.921875 -57.953125 L 10.46875 -62.1875 L 9.359375 -66.203125 L 8.6875 -70.875 L 9.359375 -88.9375 L 13.15625 -106.09375 L 16.5 -114.5625 L 23.40625 -126.375 L 34.328125 -139.078125 L 41.90625 -144.65625 L 45.921875 -146.65625 L 49.265625 -149.109375 L 65.96875 -155.359375 L 89.609375 -158.703125 L 95.625 -158.46875 L 108.546875 -156.25 L 125.703125 -150.890625 L 129.046875 -148.4375 L 135.734375 -145.546875 L 140.859375 -141.984375 L 147.328125 -136.40625 L 153.578125 -129.5 L 158.46875 -122.8125 L 162.703125 -114.5625 L 168.28125 -97.84375 L 169.84375 -88.703125 L 170.515625 -77.5625 L 169.625 -71.109375 L 169.390625 -66.421875 L 168.28125 -61.96875 L 168.0625 -57.953125 L 166.28125 -49.484375 L 162.9375 -41.015625 L 153.125 -26.078125 L 150 -22.953125 L 147.109375 -18.953125 L 140.859375 -13.59375 L 136.625 -11.59375 L 133.28125 -8.921875 L 125.9375 -4.90625 L 109.21875 0.671875 L 95.84375 2.453125 Z M 95.84375 -36.78125 L 100.296875 -37.671875 L 103.640625 -39.234375 L 107.65625 -40.34375 L 118.359375 -47.703125 L 121.46875 -51.265625 L 122.8125 -54.609375 L 125.265625 -58.625 L 126.828125 -62.625 L 128.609375 -70.875 L 129.046875 -84.46875 L 128.390625 -88.484375 L 126.375 -92.71875 L 123.703125 -101.1875 L 115.015625 -110.328125 L 108.109375 -115.234375 L 104.09375 -117.015625 L 100.078125 -117.90625 L 89.375 -119.25 L 83.140625 -118.796875 L 74.453125 -116.578125 L 71.546875 -115.453125 L 60.40625 -107.875 L 55.046875 -100.75 L 53.71875 -96.734375 L 51.9375 -92.71875 L 51.265625 -88.484375 L 50.15625 -84.46875 L 50.15625 -70.875 L 51.9375 -62.625 L 53.9375 -58.625 L 55.046875 -55.046875 L 58.171875 -50.8125 L 61.078125 -47.703125 L 67.09375 -42.796875 L 70.65625 -40.78125 L 78.6875 -37.453125 L 83.578125 -36.78125 Z M 95.84375 -36.78125 "/></g></g></g><g fill="#2c2c2c" fill-opacity="1"><g transform="translate(366.701171, 212.010868)"><g><path d="M 16.5 -6.46875 L 16.9375 -10.703125 L 16.046875 -42.34375 L 16.9375 -46.578125 L 16.265625 -144.875 L 16.71875 -149.5625 L 19.171875 -154.015625 L 23.625 -156.46875 L 30.09375 -154.6875 L 36.546875 -150 L 41.453125 -144.875 L 43.90625 -141.765625 L 47.03125 -138.859375 L 49.484375 -135.515625 L 52.375 -132.390625 L 56.171875 -129.046875 L 61.515625 -122.359375 L 76.890625 -106.546875 L 79.578125 -102.96875 L 83.140625 -100.078125 L 85.8125 -96.28125 L 88.703125 -93.390625 L 92.71875 -92.046875 L 97.625 -93.609375 L 130.609375 -128.609375 L 132.625 -131.953125 L 145.328125 -145.109375 L 150.453125 -151.34375 L 156.015625 -154.46875 L 162.703125 -156.46875 L 167.171875 -153.796875 L 169.625 -149.5625 L 169.390625 -144.875 L 169.84375 -141.09375 L 169.390625 -136.40625 L 170.0625 -73.328125 L 169.390625 -69.3125 L 169.84375 -64.859375 L 169.390625 -60.1875 L 169.625 -55.71875 L 168.953125 -51.265625 L 169.390625 -42.578125 L 168.953125 -38.34375 L 169.84375 -11.59375 L 169.171875 -7.125 L 166.71875 -2.453125 L 162.484375 0.21875 L 135.734375 0 L 130.84375 -1.78125 L 128.609375 -6.46875 L 129.28125 -37.21875 L 128.609375 -45.46875 L 128.828125 -49.921875 L 128.609375 -53.9375 L 129.28125 -58.171875 L 128.609375 -62.625 L 126.828125 -65.3125 L 124.15625 -64.859375 L 121.03125 -61.734375 L 118.125 -57.953125 L 99.40625 -39 L 95.625 -36.328125 L 90.5 -36.328125 L 83.140625 -42.34375 L 80.234375 -46.140625 L 67.765625 -57.953125 L 62.1875 -64.859375 L 58.84375 -65.75 L 56.84375 -62.625 L 57.734375 -49.703125 L 57.0625 -19.609375 L 57.734375 -14.9375 L 57.953125 -10.25 L 57.5 -6.015625 L 55.046875 -2.453125 L 48.375 -0.453125 L 23.84375 0 L 18.5 -2.453125 Z M 16.5 -6.46875 "/></g></g></g><g fill="#2c2c2c" fill-opacity="1"><g transform="translate(553.035914, 212.010868)"><g><path d="M 16.046875 -6.46875 L 16.9375 -10.921875 L 17.15625 -15.375 L 16.71875 -24.078125 L 16.71875 -28.53125 L 16.265625 -33.65625 L 16.9375 -37.671875 L 16.71875 -41.90625 L 17.15625 -46.8125 L 16.5 -51.484375 L 16.9375 -60.40625 L 16.265625 -69.09375 L 16.9375 -73.78125 L 16.9375 -113.671875 L 16.5 -117.6875 L 16.9375 -122.359375 L 16.046875 -133.734375 L 16.9375 -140.203125 L 16.5 -149.109375 L 18.71875 -154.015625 L 25.1875 -155.578125 L 54.390625 -156.25 L 58.390625 -155.796875 L 67.09375 -156.015625 L 71.546875 -155.578125 L 81.359375 -156.015625 L 85.8125 -155.359375 L 89.828125 -155.796875 L 107.65625 -155.578125 L 112.34375 -153.578125 L 114.5625 -149.109375 L 113.890625 -144.875 L 113.671875 -139.96875 L 114.34375 -135.734375 L 114.78125 -126.609375 L 112.34375 -122.59375 L 107.65625 -120.140625 L 64.859375 -119.921875 L 57.953125 -117.90625 L 55.71875 -111.4375 L 56.171875 -104.53125 L 58.84375 -100.53125 L 62.625 -98.078125 L 80.234375 -98.296875 L 85.359375 -97.84375 L 90.046875 -97.84375 L 94.5 -98.296875 L 103.421875 -98.078125 L 107.203125 -95.625 L 109.21875 -91.390625 L 109.65625 -86.921875 L 109.21875 -69.3125 L 106.984375 -65.078125 L 102.53125 -62.625 L 98.515625 -62.40625 L 93.84375 -62.859375 L 87.8125 -62.40625 L 76 -63.078125 L 71.546875 -62.625 L 62.859375 -62.625 L 58.84375 -60.1875 L 56.84375 -55.5 L 56.609375 -44.578125 L 58.625 -37.671875 L 63.296875 -35 L 68.203125 -35.4375 L 73.109375 -35 L 77.34375 -35.65625 L 106.765625 -35.21875 L 113.453125 -32.984375 L 116.34375 -28.53125 L 115.90625 -24.296875 L 116.125 -10.46875 L 115.6875 -6.234375 L 113.671875 -2 L 109 0.21875 L 104.765625 0.671875 L 91.15625 -0.21875 L 77.5625 0.453125 L 73.546875 -0.21875 L 23.1875 0.21875 L 18.953125 -2.234375 Z M 16.046875 -6.46875 "/></g></g></g><g fill="#2c2c2c" fill-opacity="1"><g transform="translate(680.751026, 212.010868)"><g><path d="M 131.5 -3.5625 L 128.609375 -6.46875 L 125.9375 -9.8125 L 122.359375 -12.703125 L 119.46875 -16.265625 L 97.84375 -37.890625 L 94.28125 -40.78125 L 62.40625 -72 L 59.515625 -72.65625 L 57.28125 -69.984375 L 58.171875 -65.3125 L 57.5 -10.703125 L 58.171875 -6.234375 L 56.171875 -1.78125 L 51.703125 0.453125 L 46.578125 0 L 41.90625 0.671875 L 30.765625 0 L 23.1875 0.453125 L 18.953125 -2 L 16.9375 -6.90625 L 16.9375 -11.140625 L 16.265625 -15.609375 L 16.9375 -24.078125 L 16.5 -28.53125 L 16.71875 -37.671875 L 16.046875 -42.34375 L 16.046875 -46.578125 L 16.5 -51.484375 L 16.5 -55.71875 L 16.9375 -59.734375 L 16.046875 -91.609375 L 16.71875 -96.28125 L 16.5 -100.96875 L 16.9375 -104.984375 L 16.265625 -114.125 L 16.71875 -118.578125 L 16.265625 -149.78125 L 19.171875 -154.015625 L 24.515625 -156.6875 L 30.53125 -154.90625 L 39.453125 -148.890625 L 51.484375 -136.625 L 54.390625 -132.84375 L 58.171875 -130.171875 L 60.40625 -126.828125 L 64.640625 -123.921875 L 67.09375 -120.578125 L 74 -114.78125 L 78.6875 -109.890625 L 81.125 -106.765625 L 84.703125 -104.09375 L 92.5 -96.0625 L 95.84375 -93.390625 L 105.65625 -83.359375 L 108.765625 -82.46875 L 109.890625 -86.03125 L 109.65625 -94.953125 L 110.546875 -99.625 L 110.546875 -103.859375 L 109.65625 -108.546875 L 109.890625 -149.109375 L 112.109375 -153.796875 L 117.46875 -156.015625 L 121.921875 -155.796875 L 125.9375 -156.25 L 130.609375 -155.578125 L 135.515625 -156.015625 L 139.75 -156.015625 L 144.203125 -155.578125 L 149.109375 -153.34375 L 151.78125 -149.34375 L 151.34375 -137.75 L 151.78125 -131.0625 L 150.890625 -126.609375 L 150.890625 -117.6875 L 151.34375 -113.453125 L 150.671875 -104.53125 L 151.5625 -77.78125 L 151.125 -72.890625 L 152.015625 -66.640625 L 150.890625 -6.015625 L 148.890625 -1.34375 L 143.765625 1.109375 L 137.96875 -0.671875 Z M 131.5 -3.5625 "/></g></g></g><g fill="#2c2c2c" fill-opacity="1"><g transform="translate(848.808959, 212.010868)"><g><path d="M 42.796875 -6.90625 L 42.578125 -24.296875 L 43.015625 -28.75 L 42.34375 -42.34375 L 42.578125 -47.03125 L 42.34375 -51.484375 L 43.234375 -58.171875 L 42.578125 -64.640625 L 42.578125 -73.546875 L 43.015625 -78.015625 L 42.578125 -82.25 L 43.234375 -89.15625 L 42.578125 -113.671875 L 40.34375 -117.90625 L 36.328125 -120.359375 L 16.5 -120.578125 L 10.703125 -119.921875 L 6.234375 -122.140625 L 3.796875 -127.046875 L 4.015625 -149.34375 L 6.234375 -153.796875 L 11.140625 -156.015625 L 77.5625 -155.578125 L 82.6875 -156.25 L 87.15625 -156.25 L 91.609375 -155.796875 L 96.0625 -155.796875 L 100.96875 -156.46875 L 105.203125 -156.46875 L 108.765625 -156.015625 L 114.125 -156.46875 L 118.578125 -154.234375 L 120.8125 -149.78125 L 120.359375 -131.5 L 120.8125 -126.828125 L 118.578125 -122.359375 L 113.453125 -120.359375 L 101.1875 -120.578125 L 97.1875 -120.140625 L 92.71875 -120.359375 L 88.9375 -120.140625 L 84.03125 -118.125 L 82.25 -114.125 L 82.6875 -109.21875 L 82.03125 -104.765625 L 82.921875 -60.40625 L 82.25 -51.046875 L 82.6875 -47.03125 L 82.25 -33.4375 L 81.578125 -28.75 L 82.25 -24.96875 L 82.46875 -16.046875 L 82.03125 -10.921875 L 82.25 -6.6875 L 80.46875 -2.234375 L 76 -0.453125 L 62.1875 -0.453125 L 57.953125 0 L 53.5 -0.453125 L 49.265625 0 L 44.578125 -2.234375 Z M 42.796875 -6.90625 "/></g></g></g><g fill="#2c2c2c" fill-opacity="1"><g transform="translate(973.403647, 212.010868)"><g><path d="M 10.703125 -6.46875 L 10.703125 -23.625 L 11.140625 -27.859375 L 13.8125 -32.09375 L 28.53125 -36.78125 L 30.765625 -41.6875 L 31.203125 -50.375 L 30.3125 -59.953125 L 31.421875 -64.421875 L 30.53125 -73.109375 L 30.984375 -77.5625 L 31.203125 -86.703125 L 30.53125 -91.828125 L 30.3125 -95.625 L 30.984375 -114.5625 L 28.078125 -118.578125 L 14.484375 -123.265625 L 12.265625 -127.5 L 12.265625 -131.734375 L 11.8125 -136.1875 L 11.8125 -141.09375 L 12.265625 -144.875 L 12.265625 -149.109375 L 14.703125 -153.796875 L 19.609375 -156.015625 L 28.3125 -155.578125 L 32.546875 -155.796875 L 46.140625 -155.578125 L 51.046875 -156.015625 L 79.34375 -155.796875 L 86.484375 -153.796875 L 88.265625 -149.34375 L 88.703125 -144.875 L 88.265625 -140.859375 L 88.265625 -127.71875 L 85.8125 -123.484375 L 81.578125 -121.03125 L 76.671875 -120.8125 L 72.4375 -118.359375 L 69.984375 -114.34375 L 69.984375 -104.984375 L 70.4375 -100.296875 L 69.984375 -95.84375 L 70.4375 -91.609375 L 69.984375 -84.703125 L 70.4375 -78.015625 L 69.546875 -68.65625 L 70.4375 -59.734375 L 69.984375 -41.453125 L 72.4375 -37 L 87.375 -32.3125 L 90.5 -28.53125 L 89.828125 -14.9375 L 90.265625 -10.921875 L 90.265625 -6.015625 L 87.8125 -2 L 83.578125 0.21875 L 17.390625 -0.21875 L 12.921875 -1.78125 Z M 10.703125 -6.46875 "/></g></g></g><g fill="#2c2c2c" fill-opacity="1"><g transform="translate(1074.594982, 212.010868)"><g><path d="M 2.890625 -6.234375 L 6.46875 -13.15625 L 19.84375 -32.765625 L 21.625 -36.546875 L 25.1875 -40.78125 L 26.96875 -43.90625 L 32.765625 -51.703125 L 34.109375 -55.046875 L 41.6875 -65.96875 L 43.46875 -69.765625 L 46.578125 -73.78125 L 48.8125 -76.890625 L 49.921875 -82.25 L 48.375 -87.59375 L 45.6875 -91.390625 L 43.90625 -95.84375 L 41.6875 -99.625 L 38.78125 -102.75 L 33.875 -110.78125 L 31.203125 -114.34375 L 21.84375 -129.5 L 18.71875 -132.625 L 16.5 -136.40625 L 13.8125 -140.203125 L 8.25 -148.890625 L 8.921875 -154.46875 L 14.484375 -156.015625 L 42.125 -155.796875 L 47.921875 -154.015625 L 51.703125 -150.234375 L 54.390625 -146.4375 L 56.171875 -142.65625 L 59.0625 -139.3125 L 69.765625 -120.8125 L 72.890625 -116.578125 L 75.78125 -116.796875 L 77.78125 -120.359375 L 80.46875 -124.15625 L 87.15625 -135.96875 L 90.046875 -139.53125 L 96.734375 -150 L 100.96875 -154.015625 L 109 -155.796875 L 113.234375 -156.015625 L 120.578125 -155.578125 L 125.265625 -156.015625 L 133.734375 -155.359375 L 138.1875 -153.796875 L 139.75 -149.34375 L 110.109375 -102.96875 L 106.765625 -99.40625 L 104.09375 -95.625 L 102.3125 -91.828125 L 99.859375 -88.046875 L 98.078125 -82.6875 L 98.734375 -77.34375 L 101.859375 -73.546875 L 106.3125 -65.96875 L 109.21875 -62.859375 L 113.671875 -55.046875 L 115.90625 -51.703125 L 118.125 -47.46875 L 121.25 -44.125 L 123.921875 -40.34375 L 125.703125 -36.328125 L 128.609375 -33.203125 L 130.609375 -29.640625 L 133.515625 -26.078125 L 142.875 -11.59375 L 144.875 -6.015625 L 143.984375 -1.34375 L 140.421875 0 L 122.359375 0.453125 L 118.578125 0 L 109.890625 0.21875 L 104.984375 -1.34375 L 100.53125 -5.125 L 84.46875 -31.875 L 83.140625 -35.4375 L 80.015625 -39.234375 L 78.453125 -43.46875 L 76 -47.46875 L 73.109375 -47.03125 L 63.296875 -31.875 L 53.265625 -12.921875 L 48.375 -5.34375 L 43.6875 -1.78125 L 38.109375 0 L 21.390625 0 L 16.9375 0.453125 L 13.15625 0.21875 L 8.6875 0.453125 L 4.234375 -1.34375 Z M 2.890625 -6.234375 "/></g></g></g></g></g></svg>